<svg id="svg" fill="#FF5500" stroke="#FF5500" width="200" height="200" version="1.1" viewBox="144 144 512 512" xmlns="http://www.w3.org/2000/svg">
    <g id="IconSvg_bgCarrier" stroke-width="0"></g>
    <g id="IconSvg_tracerCarrier" stroke-linecap="round" stroke-linejoin="round" stroke="#CCCCCC" stroke-width="0">
      <g xmlns="http://www.w3.org/2000/svg">
  <path d="m576.57 175.64h-353.14c-2.1758 0-3.9375 1.7617-3.9375 3.9375v440.83c0 1.0469 0.41406 2.0469 1.1523 2.7852s1.7422 1.1523 2.7852 1.1523h353.14c1.0469 0 2.0469-0.41406 2.7852-1.1523 0.73828-0.73828 1.1523-1.7383 1.1523-2.7852v-440.83c0-1.043-0.41406-2.0469-1.1523-2.7852-0.73828-0.73828-1.7383-1.1523-2.7852-1.1523zm-349.2 7.8711 233.72 0.003906-110.21 55.496c-1.2969 0.71094-2.1094 2.0664-2.1289 3.543v314.88c0.019531 1.4805 0.83203 2.832 2.1289 3.543l110.21 55.105h-233.72zm345.27 432.96-93.91 0.003907-122.02-61.48v-310l122.02-61.48h94.465z"></path>
  <path d="m400 375.44c-2.1758 0-3.9375 1.7617-3.9375 3.9375v41.328c0 2.1719 1.7617 3.9336 3.9375 3.9336 2.1719 0 3.9336-1.7617 3.9336-3.9336v-41.328c0-1.0469-0.41406-2.0469-1.1523-2.7852-0.73828-0.73828-1.7383-1.1523-2.7812-1.1523z"></path>
 </g>

      </g>
     <g id="IconSvg_iconCarrier">
      <g xmlns="http://www.w3.org/2000/svg">
  <path d="m576.57 175.64h-353.14c-2.1758 0-3.9375 1.7617-3.9375 3.9375v440.83c0 1.0469 0.41406 2.0469 1.1523 2.7852s1.7422 1.1523 2.7852 1.1523h353.14c1.0469 0 2.0469-0.41406 2.7852-1.1523 0.73828-0.73828 1.1523-1.7383 1.1523-2.7852v-440.83c0-1.043-0.41406-2.0469-1.1523-2.7852-0.73828-0.73828-1.7383-1.1523-2.7852-1.1523zm-349.2 7.8711 233.72 0.003906-110.21 55.496c-1.2969 0.71094-2.1094 2.0664-2.1289 3.543v314.88c0.019531 1.4805 0.83203 2.832 2.1289 3.543l110.21 55.105h-233.72zm345.27 432.96-93.91 0.003907-122.02-61.48v-310l122.02-61.48h94.465z"></path>
  <path d="m400 375.44c-2.1758 0-3.9375 1.7617-3.9375 3.9375v41.328c0 2.1719 1.7617 3.9336 3.9375 3.9336 2.1719 0 3.9336-1.7617 3.9336-3.9336v-41.328c0-1.0469-0.41406-2.0469-1.1523-2.7852-0.73828-0.73828-1.7383-1.1523-2.7812-1.1523z"></path>
 </g>

      </g>
      </svg>